<?xml version="1.0" encoding="utf-8"?>
<!-- Generator: Adobe Illustrator 26.3.0, SVG Export Plug-In . SVG Version: 6.00 Build 0)  -->
<svg version="1.1" id="Capa_1" xmlns="http://www.w3.org/2000/svg" xmlns:xlink="http://www.w3.org/1999/xlink" x="0px" y="0px"
	 viewBox="0 0 157 44" style="enable-background:new 0 0 157 44;" xml:space="preserve">
<style type="text/css">
	.st0{fill:url(#SVGID_1_);}
	.st1{fill:url(#SVGID_00000126285754863251424670000000793269980640848012_);}
	.st2{fill:url(#SVGID_00000128460785264355716410000017262332902624742066_);}
	.st3{fill:url(#SVGID_00000072982335776911964240000009355352533571759006_);}
	.st4{fill:url(#SVGID_00000070102775032549013850000017415021244515710122_);}
	.st5{fill:url(#SVGID_00000000905268735221994790000009675634145905828254_);}
	.st6{fill:url(#SVGID_00000072977288858094996380000007717365407985013127_);}
	.st7{fill:url(#SVGID_00000059997353709064850870000006159601422793118103_);}
	.st8{fill:url(#SVGID_00000074425727121730549560000016630448473690018955_);}
	.st9{fill:#FF4310;}
	.st10{font-family:'UberMove-Medium';}
	.st11{font-size:3.2936px;}
	.st12{fill:url(#SVGID_00000025402940257175953190000002953551140459828387_);}
	.st13{fill:url(#SVGID_00000173148546025698147320000003311416156481650082_);}
</style>
<g>
	<g>
		<g>
			<linearGradient id="SVGID_1_" gradientUnits="userSpaceOnUse" x1="58.7551" y1="25.3111" x2="76.3556" y2="15.1495">
				<stop  offset="0" style="stop-color:#1A313F"/>
				<stop  offset="0.099" style="stop-color:#183750"/>
				<stop  offset="0.257" style="stop-color:#153D64"/>
				<stop  offset="0.4358" style="stop-color:#134273"/>
				<stop  offset="0.6509" style="stop-color:#12457B"/>
				<stop  offset="1" style="stop-color:#12467E"/>
			</linearGradient>
			<path class="st0" d="M59.79,27.1V13.36h3.69l4.1,10.45l4.08-10.45h3.65V27.1h-2.57l0.02-10.15L68.76,27.1h-2.43L62.3,16.95
				l0.02,10.15H59.79z"/>
			
				<linearGradient id="SVGID_00000172399621323826940470000016926556984168698243_" gradientUnits="userSpaceOnUse" x1="77.2571" y1="24.6787" x2="87.5604" y2="18.7302">
				<stop  offset="0" style="stop-color:#1A313F"/>
				<stop  offset="0.099" style="stop-color:#183750"/>
				<stop  offset="0.257" style="stop-color:#153D64"/>
				<stop  offset="0.4358" style="stop-color:#134273"/>
				<stop  offset="0.6509" style="stop-color:#12457B"/>
				<stop  offset="1" style="stop-color:#12467E"/>
			</linearGradient>
			<path style="fill:url(#SVGID_00000172399621323826940470000016926556984168698243_);" d="M77.17,16.95h2.57v5.95
				c0,1.26,0.84,2.18,2.1,2.18s2.12-0.88,2.12-2.18v-5.95h2.57V27.1h-2.57v-0.9c-0.71,0.73-1.69,1.14-2.79,1.14
				c-2.38,0-4.01-1.73-4.01-3.93V16.95z"/>
			
				<linearGradient id="SVGID_00000016781163267629180410000004340355274729117623_" gradientUnits="userSpaceOnUse" x1="85.646" y1="22.5053" x2="93.5269" y2="17.9553">
				<stop  offset="0" style="stop-color:#1A313F"/>
				<stop  offset="0.099" style="stop-color:#183750"/>
				<stop  offset="0.257" style="stop-color:#153D64"/>
				<stop  offset="0.4358" style="stop-color:#134273"/>
				<stop  offset="0.6509" style="stop-color:#12457B"/>
				<stop  offset="1" style="stop-color:#12467E"/>
			</linearGradient>
			<path style="fill:url(#SVGID_00000016781163267629180410000004340355274729117623_);" d="M88.3,27.1V13.36h2.57V27.1H88.3z"/>
			
				<linearGradient id="SVGID_00000178900819173737173910000005552645928429223565_" gradientUnits="userSpaceOnUse" x1="92.4722" y1="22.7823" x2="99.6881" y2="18.6162">
				<stop  offset="0" style="stop-color:#1A313F"/>
				<stop  offset="0.099" style="stop-color:#183750"/>
				<stop  offset="0.257" style="stop-color:#153D64"/>
				<stop  offset="0.4358" style="stop-color:#134273"/>
				<stop  offset="0.6509" style="stop-color:#12457B"/>
				<stop  offset="1" style="stop-color:#12467E"/>
			</linearGradient>
			<path style="fill:url(#SVGID_00000178900819173737173910000005552645928429223565_);" d="M93.94,24.55v-5.38h-1.98v-2.22h1.98
				v-2.95h2.55v2.95h2.24v2.22h-2.24v4.93c0,0.53,0.37,0.79,0.96,0.79h1.28v2.22h-2C94.88,27.1,93.94,26,93.94,24.55z"/>
			
				<linearGradient id="SVGID_00000098209973478488764020000007501333820791190182_" gradientUnits="userSpaceOnUse" x1="97.2105" y1="22.572" x2="104.8998" y2="18.1326">
				<stop  offset="0" style="stop-color:#1A313F"/>
				<stop  offset="0.099" style="stop-color:#183750"/>
				<stop  offset="0.257" style="stop-color:#153D64"/>
				<stop  offset="0.4358" style="stop-color:#134273"/>
				<stop  offset="0.6509" style="stop-color:#12457B"/>
				<stop  offset="1" style="stop-color:#12467E"/>
			</linearGradient>
			<path style="fill:url(#SVGID_00000098209973478488764020000007501333820791190182_);" d="M99.67,14.44
				c0-0.81,0.65-1.41,1.45-1.41c0.81,0,1.41,0.61,1.41,1.41c0,0.81-0.61,1.43-1.41,1.43C100.32,15.87,99.67,15.24,99.67,14.44z
				 M102.4,27.1h-2.57V16.95h2.57V27.1z"/>
			
				<linearGradient id="SVGID_00000160174522754269487510000014683358722058169764_" gradientUnits="userSpaceOnUse" x1="104.9434" y1="23.8871" x2="117.5246" y2="16.6234">
				<stop  offset="0" style="stop-color:#1A313F"/>
				<stop  offset="0.099" style="stop-color:#183750"/>
				<stop  offset="0.257" style="stop-color:#153D64"/>
				<stop  offset="0.4358" style="stop-color:#134273"/>
				<stop  offset="0.6509" style="stop-color:#12457B"/>
				<stop  offset="1" style="stop-color:#12467E"/>
			</linearGradient>
			<path style="fill:url(#SVGID_00000160174522754269487510000014683358722058169764_);" d="M111.29,13.1c2.47,0,4.56,1.2,5.91,2.96
				l-2.06,1.51c-0.88-1.26-2.34-2.06-3.81-2.06c-2.61,0-4.67,1.9-4.67,4.69c0,2.83,2.1,4.71,4.67,4.71c1.59,0,3.02-0.77,3.87-2.04
				l2.06,1.51c-1.3,1.77-3.38,2.96-5.91,2.96c-4.32,0-7.38-3.12-7.38-7.15C103.97,16.28,107.05,13.1,111.29,13.1z"/>
			
				<linearGradient id="SVGID_00000178164910984392321320000015284785627384176040_" gradientUnits="userSpaceOnUse" x1="118.3685" y1="25.514" x2="127.5203" y2="20.2303">
				<stop  offset="0" style="stop-color:#1A313F"/>
				<stop  offset="0.099" style="stop-color:#183750"/>
				<stop  offset="0.257" style="stop-color:#153D64"/>
				<stop  offset="0.4358" style="stop-color:#134273"/>
				<stop  offset="0.6509" style="stop-color:#12457B"/>
				<stop  offset="1" style="stop-color:#12467E"/>
			</linearGradient>
			<path style="fill:url(#SVGID_00000178164910984392321320000015284785627384176040_);" d="M121.5,21.23l2.98-0.22v-0.39
				c0-1-0.67-1.61-1.87-1.61c-0.92,0-1.79,0.29-2.69,0.9l-1.08-1.83c1.18-0.86,2.53-1.35,4.08-1.35c2.43,0,4.04,1.41,4.04,3.57v3.99
				c0,0.37,0.2,0.59,0.57,0.59h0.53v2.22h-1.2c-0.98,0-1.73-0.45-2.08-1.2c-0.71,0.9-1.83,1.45-3.18,1.45
				c-2.02,0-3.51-1.32-3.51-3.1C118.11,22.43,119.34,21.39,121.5,21.23z M122.19,25.39c1.28,0,2.3-0.82,2.3-1.85V22.9l-2.63,0.24
				c-0.86,0.08-1.3,0.43-1.3,1.1C120.56,24.94,121.23,25.39,122.19,25.39z"/>
			
				<linearGradient id="SVGID_00000167355973308792041200000003924566617977801380_" gradientUnits="userSpaceOnUse" x1="126.6058" y1="22.5053" x2="134.4867" y2="17.9553">
				<stop  offset="0" style="stop-color:#1A313F"/>
				<stop  offset="0.099" style="stop-color:#183750"/>
				<stop  offset="0.257" style="stop-color:#153D64"/>
				<stop  offset="0.4358" style="stop-color:#134273"/>
				<stop  offset="0.6509" style="stop-color:#12457B"/>
				<stop  offset="1" style="stop-color:#12467E"/>
			</linearGradient>
			<path style="fill:url(#SVGID_00000167355973308792041200000003924566617977801380_);" d="M129.26,27.1V13.36h2.57V27.1H129.26z"
				/>
			
				<linearGradient id="SVGID_00000054960121404794934020000005594185845813137826_" gradientUnits="userSpaceOnUse" x1="130.9452" y1="22.5053" x2="138.826" y2="17.9553">
				<stop  offset="0" style="stop-color:#1A313F"/>
				<stop  offset="0.099" style="stop-color:#183750"/>
				<stop  offset="0.257" style="stop-color:#153D64"/>
				<stop  offset="0.4358" style="stop-color:#134273"/>
				<stop  offset="0.6509" style="stop-color:#12457B"/>
				<stop  offset="1" style="stop-color:#12467E"/>
			</linearGradient>
			<path style="fill:url(#SVGID_00000054960121404794934020000005594185845813137826_);" d="M133.6,27.1V13.36h2.57V27.1H133.6z"/>
		</g>
		<text transform="matrix(1 0 0 1 64.5413 32.5541)" class="st9 st10 st11">M A R K E T I N G   S O L U T I O N S</text>
	</g>
	<g>
		<g>
			
				<linearGradient id="SVGID_00000097487603541522574390000006125984083078662804_" gradientUnits="userSpaceOnUse" x1="20.0476" y1="21.7879" x2="55.8296" y2="21.7879">
				<stop  offset="0" style="stop-color:#1A313F"/>
				<stop  offset="1" style="stop-color:#12467E"/>
			</linearGradient>
			<path style="fill:url(#SVGID_00000097487603541522574390000006125984083078662804_);" d="M49.86,30.58
				c-0.22-0.22-0.44-0.6-0.68-0.62c-0.27-0.03-0.49,0.37-0.74,0.58c-1.95,1.61-4.18,2.53-6.71,2.68c-0.93,0.05-1.85-0.02-2.77-0.15
				c0,0,0,0,0,0c-0.15-0.08-0.32-0.11-0.49-0.12c-0.22,0.01-0.4-0.11-0.6-0.17c-4.54-1.38-7.7-5.17-8.16-9.87
				c-0.33-3.34,0.68-6.28,2.9-8.78c1.58-1.77,3.56-2.91,5.86-3.48c0.17-0.01,0.34-0.04,0.49-0.12c0,0,0,0,0,0
				c0.11-0.01,0.23-0.01,0.34-0.03c1.54-0.23,3.06-0.18,4.57,0.21c1.93,0.49,3.63,1.43,5.07,2.81c0.16,0.15,0.25,0.19,0.43,0.01
				c0.54-0.56,1.09-1.11,1.65-1.66c0.15-0.15,0.14-0.24-0.01-0.38c-1.2-1.12-2.52-2.05-4.02-2.73c-1.61-0.73-3.3-1.15-5.07-1.25
				c-1.42-0.08-2.82,0.04-4.2,0.37C37.57,7.9,37.42,7.92,37.29,8c0,0,0,0,0,0C37.24,8,37.2,8,37.15,8.02
				c-5.62,1.59-9.73,6.48-10.32,12.26c-0.27,2.68,0.13,5.25,1.31,7.68c1.53,3.17,3.91,5.47,7.11,6.92c0.11,0.05,0.22,0.12,0.34-0.01
				c0.34-0.36,0.78-0.52,1.24-0.66c0.25,0,0.5,0,0.75-0.01c0,0,0,0,0,0c0,0,0,0,0,0c0.05,0,0.09,0.01,0.14,0.01
				c0.05,0.07,0.13,0.07,0.2,0.06l0,0l0,0c0.4,0.12,0.73,0.34,1.02,0.64c0.7,0.71,0.88,1.79,0.44,2.7c-0.48,0.96-1.42,1.44-2.53,1.3
				c-0.92-0.12-1.74-0.92-1.91-1.87c-0.04-0.21-0.14-0.31-0.32-0.39c-1.83-0.79-3.45-1.87-4.87-3.27c-1.63-1.6-2.88-3.45-3.72-5.57
				c-0.09-0.23-0.21-0.32-0.47-0.32c-0.75,0.02-1.49,0-2.24,0.01c-0.26,0.01-0.38-0.07-0.46-0.32c-0.45-1.38-0.72-2.8-0.84-4.25
				c0-0.75,0-1.49,0-2.24l0,0l0,0c0.11-1.43,0.37-2.84,0.8-4.22c0.1-0.3,0.22-0.44,0.56-0.42c0.73,0.03,1.47,0,2.21,0.01
				c0.24,0.01,0.37-0.07,0.44-0.31c0.09-0.28,0.22-0.55,0.34-0.81c2.78-5.9,8.81-9.66,15.38-9.36c1.48,0.07,2.92,0.32,4.32,0.77
				c2.36,0.77,4.43,2.02,6.22,3.74c0.19,0.19,0.3,0.18,0.48,0c0.97-0.98,1.94-1.96,2.92-2.93c0.21-0.2,0.16-0.3-0.02-0.47
				c-1.77-1.72-3.78-3.08-6.03-4.09c-2.1-0.95-4.3-1.53-6.59-1.74c-1.37-0.12-2.75-0.18-4.12,0.06c-0.51-0.03-1.01,0.07-1.5,0.19
				c0,0,0,0,0,0c-0.65,0.07-1.29,0.23-1.92,0.4c-3.37,0.92-6.32,2.59-8.86,4.99c-2.18,2.05-3.85,4.46-4.99,7.23
				c-0.92,2.22-1.47,4.53-1.55,6.94c-0.02,0.09-0.03,0.18-0.03,0.26c-0.05,0.57-0.05,1.13,0,1.7c0,0.1,0.02,0.2,0.03,0.31
				c0.02,0.98,0.16,1.94,0.35,2.89c0.75,3.79,2.43,7.13,5.01,10c2.53,2.8,5.6,4.8,9.2,5.95c0.88,0.28,1.77,0.54,2.7,0.65
				c0.42,0.11,0.85,0.18,1.29,0.2l0,0l0,0c0.07,0.01,0.13,0.03,0.2,0.03c2.23,0.23,4.45,0.12,6.64-0.36
				c3.91-0.86,7.29-2.69,10.18-5.46c0.18-0.17,0.2-0.27,0.01-0.46C53.75,34.47,51.81,32.52,49.86,30.58z"/>
			
				<linearGradient id="SVGID_00000117675479407098869830000013151933961508977793_" gradientUnits="userSpaceOnUse" x1="39.3202" y1="24.8394" x2="42.7342" y2="30.7527">
				<stop  offset="0" style="stop-color:#1A313F"/>
				<stop  offset="1" style="stop-color:#12467E"/>
			</linearGradient>
			<path style="fill:url(#SVGID_00000117675479407098869830000013151933961508977793_);" d="M45.96,26.67
				c-0.12-0.13-0.2-0.13-0.33-0.01c-0.3,0.29-0.63,0.55-0.99,0.77c-2.67,1.62-5.76,1.34-8.09-0.74c-0.18-0.16-0.27-0.12-0.41,0.02
				c-0.31,0.33-0.63,0.65-0.96,0.95c-0.19,0.17-0.15,0.27,0.02,0.42c1.66,1.51,3.61,2.27,5.54,2.3c2.58-0.01,4.54-0.79,6.22-2.32
				c0.17-0.16,0.17-0.24,0.01-0.39C46.62,27.35,46.29,27.01,45.96,26.67z"/>
		</g>
		<g>
			<circle class="st9" cx="46.83" cy="23.02" r="1.64"/>
			<circle class="st9" cx="49.43" cy="25.67" r="0.96"/>
			<circle class="st9" cx="50.73" cy="23.37" r="0.42"/>
			<path class="st9" d="M33.89,25.6h2.72l1.09-5.7l2.44,5.21c0,0,1.2,1.5,2.27-0.11l2.32-5.15l0.34,1.68c0,0,1.04-0.84,2.45-0.64
				c0,0-0.95-4.45-1.18-5.4c0,0-1.02-1.97-2.43-0.11l-2.68,5.83c0.16-0.04-2.97-6.23-2.97-6.23s-1.34-1.2-2.18,0.68L33.89,25.6z"/>
		</g>
	</g>
</g>
</svg>
