<svg id="visual" viewBox="0 0 960 540" width="960" height="540" xmlns="http://www.w3.org/2000/svg" xmlns:xlink="http://www.w3.org/1999/xlink" version="1.1"><path d="M0 416L22.8 417.3C45.7 418.7 91.3 421.3 137 424.2C182.7 427 228.3 430 274 427.7C319.7 425.3 365.3 417.7 411.2 421.7C457 425.7 503 441.3 548.8 449.2C594.7 457 640.3 457 686 449.3C731.7 441.7 777.3 426.3 823 421.2C868.7 416 914.3 421 937.2 423.5L960 426L960 541L937.2 541C914.3 541 868.7 541 823 541C777.3 541 731.7 541 686 541C640.3 541 594.7 541 548.8 541C503 541 457 541 411.2 541C365.3 541 319.7 541 274 541C228.3 541 182.7 541 137 541C91.3 541 45.7 541 22.8 541L0 541Z" fill="#202252"></path><path d="M0 448L22.8 447C45.7 446 91.3 444 137 444C182.7 444 228.3 446 274 448.7C319.7 451.3 365.3 454.7 411.2 456.8C457 459 503 460 548.8 456.3C594.7 452.7 640.3 444.3 686 442.5C731.7 440.7 777.3 445.3 823 448.8C868.7 452.3 914.3 454.7 937.2 455.8L960 457L960 541L937.2 541C914.3 541 868.7 541 823 541C777.3 541 731.7 541 686 541C640.3 541 594.7 541 548.8 541C503 541 457 541 411.2 541C365.3 541 319.7 541 274 541C228.3 541 182.7 541 137 541C91.3 541 45.7 541 22.8 541L0 541Z" fill="#62226a"></path><path d="M0 488L22.8 483C45.7 478 91.3 468 137 466C182.7 464 228.3 470 274 472C319.7 474 365.3 472 411.2 470C457 468 503 466 548.8 466.3C594.7 466.7 640.3 469.3 686 472C731.7 474.7 777.3 477.3 823 474.2C868.7 471 914.3 462 937.2 457.5L960 453L960 541L937.2 541C914.3 541 868.7 541 823 541C777.3 541 731.7 541 686 541C640.3 541 594.7 541 548.8 541C503 541 457 541 411.2 541C365.3 541 319.7 541 274 541C228.3 541 182.7 541 137 541C91.3 541 45.7 541 22.8 541L0 541Z" fill="#a70068"></path><path d="M0 488L22.8 486.5C45.7 485 91.3 482 137 481C182.7 480 228.3 481 274 485C319.7 489 365.3 496 411.2 498C457 500 503 497 548.8 497C594.7 497 640.3 500 686 500.2C731.7 500.3 777.3 497.7 823 495.3C868.7 493 914.3 491 937.2 490L960 489L960 541L937.2 541C914.3 541 868.7 541 823 541C777.3 541 731.7 541 686 541C640.3 541 594.7 541 548.8 541C503 541 457 541 411.2 541C365.3 541 319.7 541 274 541C228.3 541 182.7 541 137 541C91.3 541 45.7 541 22.8 541L0 541Z" fill="#e0004a"></path><path d="M0 513L22.8 511C45.7 509 91.3 505 137 506C182.7 507 228.3 513 274 512.8C319.7 512.7 365.3 506.3 411.2 506.8C457 507.3 503 514.7 548.8 515.7C594.7 516.7 640.3 511.3 686 508.2C731.7 505 777.3 504 823 505.2C868.7 506.3 914.3 509.7 937.2 511.3L960 513L960 541L937.2 541C914.3 541 868.7 541 823 541C777.3 541 731.7 541 686 541C640.3 541 594.7 541 548.8 541C503 541 457 541 411.2 541C365.3 541 319.7 541 274 541C228.3 541 182.7 541 137 541C91.3 541 45.7 541 22.8 541L0 541Z" fill="#ff3600"></path></svg>