<svg id="visual" viewBox="0 0 1440 540" width="1440" height="540" xmlns="http://www.w3.org/2000/svg" xmlns:xlink="http://www.w3.org/1999/xlink" version="1.1"><path d="M0 384L103 384L103 367L206 367L206 373L309 373L309 381L411 381L411 379L514 379L514 371L617 371L617 370L720 370L720 370L823 370L823 387L926 387L926 378L1029 378L1029 376L1131 376L1131 384L1234 384L1234 367L1337 367L1337 368L1440 368L1440 376L1440 541L1440 541L1337 541L1337 541L1234 541L1234 541L1131 541L1131 541L1029 541L1029 541L926 541L926 541L823 541L823 541L720 541L720 541L617 541L617 541L514 541L514 541L411 541L411 541L309 541L309 541L206 541L206 541L103 541L103 541L0 541Z" fill="#141236"></path><path d="M0 410L103 410L103 405L206 405L206 403L309 403L309 407L411 407L411 407L514 407L514 407L617 407L617 406L720 406L720 399L823 399L823 404L926 404L926 412L1029 412L1029 395L1131 395L1131 405L1234 405L1234 406L1337 406L1337 397L1440 397L1440 394L1440 541L1440 541L1337 541L1337 541L1234 541L1234 541L1131 541L1131 541L1029 541L1029 541L926 541L926 541L823 541L823 541L720 541L720 541L617 541L617 541L514 541L514 541L411 541L411 541L309 541L309 541L206 541L206 541L103 541L103 541L0 541Z" fill="#110e33"></path><path d="M0 435L103 435L103 432L206 432L206 422L309 422L309 435L411 435L411 438L514 438L514 429L617 429L617 435L720 435L720 435L823 435L823 432L926 432L926 434L1029 434L1029 437L1131 437L1131 427L1234 427L1234 427L1337 427L1337 432L1440 432L1440 428L1440 541L1440 541L1337 541L1337 541L1234 541L1234 541L1131 541L1131 541L1029 541L1029 541L926 541L926 541L823 541L823 541L720 541L720 541L617 541L617 541L514 541L514 541L411 541L411 541L309 541L309 541L206 541L206 541L103 541L103 541L0 541Z" fill="#0f0930"></path><path d="M0 452L103 452L103 449L206 449L206 457L309 457L309 463L411 463L411 453L514 453L514 458L617 458L617 457L720 457L720 459L823 459L823 456L926 456L926 463L1029 463L1029 457L1131 457L1131 452L1234 452L1234 461L1337 461L1337 460L1440 460L1440 452L1440 541L1440 541L1337 541L1337 541L1234 541L1234 541L1131 541L1131 541L1029 541L1029 541L926 541L926 541L823 541L823 541L720 541L720 541L617 541L617 541L514 541L514 541L411 541L411 541L309 541L309 541L206 541L206 541L103 541L103 541L0 541Z" fill="#0d032c"></path><path d="M0 487L103 487L103 479L206 479L206 484L309 484L309 482L411 482L411 481L514 481L514 475L617 475L617 487L720 487L720 488L823 488L823 478L926 478L926 489L1029 489L1029 477L1131 477L1131 487L1234 487L1234 488L1337 488L1337 475L1440 475L1440 479L1440 541L1440 541L1337 541L1337 541L1234 541L1234 541L1131 541L1131 541L1029 541L1029 541L926 541L926 541L823 541L823 541L720 541L720 541L617 541L617 541L514 541L514 541L411 541L411 541L309 541L309 541L206 541L206 541L103 541L103 541L0 541Z" fill="#0a0029"></path><path d="M0 503L103 503L103 511L206 511L206 510L309 510L309 510L411 510L411 511L514 511L514 504L617 504L617 503L720 503L720 505L823 505L823 512L926 512L926 506L1029 506L1029 504L1131 504L1131 510L1234 510L1234 513L1337 513L1337 511L1440 511L1440 509L1440 541L1440 541L1337 541L1337 541L1234 541L1234 541L1131 541L1131 541L1029 541L1029 541L926 541L926 541L823 541L823 541L720 541L720 541L617 541L617 541L514 541L514 541L411 541L411 541L309 541L309 541L206 541L206 541L103 541L103 541L0 541Z" fill="#000000"></path></svg>