<svg id="visual" viewBox="0 0 1440 540" width="1440" height="540" xmlns="http://www.w3.org/2000/svg" xmlns:xlink="http://www.w3.org/1999/xlink" version="1.1"><path d="M0 426L34.3 425C68.7 424 137.3 422 205.8 419.7C274.3 417.3 342.7 414.7 411.2 414.8C479.7 415 548.3 418 617 425C685.7 432 754.3 443 823 446.7C891.7 450.3 960.3 446.7 1028.8 442.2C1097.3 437.7 1165.7 432.3 1234.2 428.3C1302.7 424.3 1371.3 421.7 1405.7 420.3L1440 419L1440 541L1405.7 541C1371.3 541 1302.7 541 1234.2 541C1165.7 541 1097.3 541 1028.8 541C960.3 541 891.7 541 823 541C754.3 541 685.7 541 617 541C548.3 541 479.7 541 411.2 541C342.7 541 274.3 541 205.8 541C137.3 541 68.7 541 34.3 541L0 541Z" fill="#133231"></path><path d="M0 441L34.3 446.2C68.7 451.3 137.3 461.7 205.8 465.7C274.3 469.7 342.7 467.3 411.2 461.5C479.7 455.7 548.3 446.3 617 444.7C685.7 443 754.3 449 823 449.5C891.7 450 960.3 445 1028.8 446.2C1097.3 447.3 1165.7 454.7 1234.2 457C1302.7 459.3 1371.3 456.7 1405.7 455.3L1440 454L1440 541L1405.7 541C1371.3 541 1302.7 541 1234.2 541C1165.7 541 1097.3 541 1028.8 541C960.3 541 891.7 541 823 541C754.3 541 685.7 541 617 541C548.3 541 479.7 541 411.2 541C342.7 541 274.3 541 205.8 541C137.3 541 68.7 541 34.3 541L0 541Z" fill="#07343b"></path><path d="M0 456L34.3 460.3C68.7 464.7 137.3 473.3 205.8 475.5C274.3 477.7 342.7 473.3 411.2 473.5C479.7 473.7 548.3 478.3 617 476.3C685.7 474.3 754.3 465.7 823 465.5C891.7 465.3 960.3 473.7 1028.8 477.3C1097.3 481 1165.7 480 1234.2 481.2C1302.7 482.3 1371.3 485.7 1405.7 487.3L1440 489L1440 541L1405.7 541C1371.3 541 1302.7 541 1234.2 541C1165.7 541 1097.3 541 1028.8 541C960.3 541 891.7 541 823 541C754.3 541 685.7 541 617 541C548.3 541 479.7 541 411.2 541C342.7 541 274.3 541 205.8 541C137.3 541 68.7 541 34.3 541L0 541Z" fill="#003645"></path><path d="M0 505L34.3 504C68.7 503 137.3 501 205.8 497.2C274.3 493.3 342.7 487.7 411.2 489C479.7 490.3 548.3 498.7 617 498C685.7 497.3 754.3 487.7 823 486.3C891.7 485 960.3 492 1028.8 494.2C1097.3 496.3 1165.7 493.7 1234.2 495.2C1302.7 496.7 1371.3 502.3 1405.7 505.2L1440 508L1440 541L1405.7 541C1371.3 541 1302.7 541 1234.2 541C1165.7 541 1097.3 541 1028.8 541C960.3 541 891.7 541 823 541C754.3 541 685.7 541 617 541C548.3 541 479.7 541 411.2 541C342.7 541 274.3 541 205.8 541C137.3 541 68.7 541 34.3 541L0 541Z" fill="#01374f"></path><path d="M0 522L34.3 520.2C68.7 518.3 137.3 514.7 205.8 511.8C274.3 509 342.7 507 411.2 508.7C479.7 510.3 548.3 515.7 617 515.3C685.7 515 754.3 509 823 507.2C891.7 505.3 960.3 507.7 1028.8 509.5C1097.3 511.3 1165.7 512.7 1234.2 513C1302.7 513.3 1371.3 512.7 1405.7 512.3L1440 512L1440 541L1405.7 541C1371.3 541 1302.7 541 1234.2 541C1165.7 541 1097.3 541 1028.8 541C960.3 541 891.7 541 823 541C754.3 541 685.7 541 617 541C548.3 541 479.7 541 411.2 541C342.7 541 274.3 541 205.8 541C137.3 541 68.7 541 34.3 541L0 541Z" fill="#153657"></path></svg>