<svg id="visual" viewBox="0 0 425 900" width="425" height="900" xmlns="http://www.w3.org/2000/svg" xmlns:xlink="http://www.w3.org/1999/xlink" version="1.1"><path d="M0 644L10.2 617.2C20.3 590.3 40.7 536.7 60.8 544.3C81 552 101 621 121.2 648.3C141.3 675.7 161.7 661.3 182 633C202.3 604.7 222.7 562.3 243 535C263.3 507.7 283.7 495.3 303.8 505.8C324 516.3 344 549.7 364.2 581.8C384.3 614 404.7 645 414.8 660.5L425 676L425 901L414.8 901C404.7 901 384.3 901 364.2 901C344 901 324 901 303.8 901C283.7 901 263.3 901 243 901C222.7 901 202.3 901 182 901C161.7 901 141.3 901 121.2 901C101 901 81 901 60.8 901C40.7 901 20.3 901 10.2 901L0 901Z" fill="#FF4500" stroke-linecap="round" stroke-linejoin="miter"></path></svg>