<svg id="visual" viewBox="0 0 425 900" width="425" height="900" xmlns="http://www.w3.org/2000/svg" xmlns:xlink="http://www.w3.org/1999/xlink" version="1.1"><path d="M0 556L10.2 559.8C20.3 563.7 40.7 571.3 60.8 579.7C81 588 101 597 121.2 590.8C141.3 584.7 161.7 563.3 182 574C202.3 584.7 222.7 627.3 243 649C263.3 670.7 283.7 671.3 303.8 650.3C324 629.3 344 586.7 364.2 572.3C384.3 558 404.7 572 414.8 579L425 586L425 901L414.8 901C404.7 901 384.3 901 364.2 901C344 901 324 901 303.8 901C283.7 901 263.3 901 243 901C222.7 901 202.3 901 182 901C161.7 901 141.3 901 121.2 901C101 901 81 901 60.8 901C40.7 901 20.3 901 10.2 901L0 901Z" fill="#202252"></path><path d="M0 647L10.2 644.3C20.3 641.7 40.7 636.3 60.8 636.3C81 636.3 101 641.7 121.2 648.7C141.3 655.7 161.7 664.3 182 670.3C202.3 676.3 222.7 679.7 243 669.7C263.3 659.7 283.7 636.3 303.8 631.3C324 626.3 344 639.7 364.2 649.3C384.3 659 404.7 665 414.8 668L425 671L425 901L414.8 901C404.7 901 384.3 901 364.2 901C344 901 324 901 303.8 901C283.7 901 263.3 901 243 901C222.7 901 202.3 901 182 901C161.7 901 141.3 901 121.2 901C101 901 81 901 60.8 901C40.7 901 20.3 901 10.2 901L0 901Z" fill="#62226a"></path><path d="M0 758L10.2 743.8C20.3 729.7 40.7 701.3 60.8 695.5C81 689.7 101 706.3 121.2 712.2C141.3 718 161.7 713 182 707.5C202.3 702 222.7 696 243 696.7C263.3 697.3 283.7 704.7 303.8 712.3C324 720 344 728 364.2 719.2C384.3 710.3 404.7 684.7 414.8 671.8L425 659L425 901L414.8 901C404.7 901 384.3 901 364.2 901C344 901 324 901 303.8 901C283.7 901 263.3 901 243 901C222.7 901 202.3 901 182 901C161.7 901 141.3 901 121.2 901C101 901 81 901 60.8 901C40.7 901 20.3 901 10.2 901L0 901Z" fill="#a70068"></path><path d="M0 756L10.2 751.8C20.3 747.7 40.7 739.3 60.8 737C81 734.7 101 738.3 121.2 749.7C141.3 761 161.7 780 182 785.5C202.3 791 222.7 783 243 783.2C263.3 783.3 283.7 791.7 303.8 792C324 792.3 344 784.7 364.2 778.2C384.3 771.7 404.7 766.3 414.8 763.7L425 761L425 901L414.8 901C404.7 901 384.3 901 364.2 901C344 901 324 901 303.8 901C283.7 901 263.3 901 243 901C222.7 901 202.3 901 182 901C161.7 901 141.3 901 121.2 901C101 901 81 901 60.8 901C40.7 901 20.3 901 10.2 901L0 901Z" fill="#e0004a"></path><path d="M0 827L10.2 821.5C20.3 816 40.7 805 60.8 808C81 811 101 828 121.2 827.5C141.3 827 161.7 809 182 810.3C202.3 811.7 222.7 832.3 243 835.2C263.3 838 283.7 823 303.8 814C324 805 344 802 364.2 805C384.3 808 404.7 817 414.8 821.5L425 826L425 901L414.8 901C404.7 901 384.3 901 364.2 901C344 901 324 901 303.8 901C283.7 901 263.3 901 243 901C222.7 901 202.3 901 182 901C161.7 901 141.3 901 121.2 901C101 901 81 901 60.8 901C40.7 901 20.3 901 10.2 901L0 901Z" fill="#ff3600"></path></svg>