<svg id="visual" viewBox="0 0 768 900" width="768" height="900" xmlns="http://www.w3.org/2000/svg" xmlns:xlink="http://www.w3.org/1999/xlink" version="1.1"><path d="M0 693L18.3 695.3C36.7 697.7 73.3 702.3 109.8 707.3C146.3 712.3 182.7 717.7 219.2 714C255.7 710.3 292.3 697.7 329 704.2C365.7 710.7 402.3 736.3 439 749.3C475.7 762.3 512.3 762.7 548.8 750C585.3 737.3 621.7 711.7 658.2 703C694.7 694.3 731.3 702.7 749.7 706.8L768 711L768 901L749.7 901C731.3 901 694.7 901 658.2 901C621.7 901 585.3 901 548.8 901C512.3 901 475.7 901 439 901C402.3 901 365.7 901 329 901C292.3 901 255.7 901 219.2 901C182.7 901 146.3 901 109.8 901C73.3 901 36.7 901 18.3 901L0 901Z" fill="#202252"></path><path d="M0 748L18.3 746.3C36.7 744.7 73.3 741.3 109.8 741.3C146.3 741.3 182.7 744.7 219.2 748.8C255.7 753 292.3 758 329 761.5C365.7 765 402.3 767 439 761.2C475.7 755.3 512.3 741.7 548.8 738.7C585.3 735.7 621.7 743.3 658.2 749C694.7 754.7 731.3 758.3 749.7 760.2L768 762L768 901L749.7 901C731.3 901 694.7 901 658.2 901C621.7 901 585.3 901 548.8 901C512.3 901 475.7 901 439 901C402.3 901 365.7 901 329 901C292.3 901 255.7 901 219.2 901C182.7 901 146.3 901 109.8 901C73.3 901 36.7 901 18.3 901L0 901Z" fill="#62226a"></path><path d="M0 815L18.3 806.3C36.7 797.7 73.3 780.3 109.8 776.7C146.3 773 182.7 783 219.2 786.5C255.7 790 292.3 787 329 783.7C365.7 780.3 402.3 776.7 439 777.2C475.7 777.7 512.3 782.3 548.8 787C585.3 791.7 621.7 796.3 658.2 791C694.7 785.7 731.3 770.3 749.7 762.7L768 755L768 901L749.7 901C731.3 901 694.7 901 658.2 901C621.7 901 585.3 901 548.8 901C512.3 901 475.7 901 439 901C402.3 901 365.7 901 329 901C292.3 901 255.7 901 219.2 901C182.7 901 146.3 901 109.8 901C73.3 901 36.7 901 18.3 901L0 901Z" fill="#a70068"></path><path d="M0 813L18.3 810.5C36.7 808 73.3 803 109.8 801.7C146.3 800.3 182.7 802.7 219.2 809.5C255.7 816.3 292.3 827.7 329 831C365.7 834.3 402.3 829.7 439 829.8C475.7 830 512.3 835 548.8 835.2C585.3 835.3 621.7 830.7 658.2 826.7C694.7 822.7 731.3 819.3 749.7 817.7L768 816L768 901L749.7 901C731.3 901 694.7 901 658.2 901C621.7 901 585.3 901 548.8 901C512.3 901 475.7 901 439 901C402.3 901 365.7 901 329 901C292.3 901 255.7 901 219.2 901C182.7 901 146.3 901 109.8 901C73.3 901 36.7 901 18.3 901L0 901Z" fill="#e0004a"></path><path d="M0 856L18.3 852.7C36.7 849.3 73.3 842.7 109.8 844.3C146.3 846 182.7 856 219.2 855.7C255.7 855.3 292.3 844.7 329 845.5C365.7 846.3 402.3 858.7 439 860.3C475.7 862 512.3 853 548.8 847.7C585.3 842.3 621.7 840.7 658.2 842.5C694.7 844.3 731.3 849.7 749.7 852.3L768 855L768 901L749.7 901C731.3 901 694.7 901 658.2 901C621.7 901 585.3 901 548.8 901C512.3 901 475.7 901 439 901C402.3 901 365.7 901 329 901C292.3 901 255.7 901 219.2 901C182.7 901 146.3 901 109.8 901C73.3 901 36.7 901 18.3 901L0 901Z" fill="#ff3600"></path></svg>